# xmcd
#
# Track frame offsets:
#	150
#	15662
#	32105
#	47742
#	65777
#	79150
#	92895
#	109400
#	127757
#	139560
#	152670
#	165512
#	183442
#	196802
#	212925
#	232055
#	246605
# Disc length: 3496 seconds
# Revision: 1
# Processed by: cddbd v1.5.2PL0 Copyright (c) Steve Scherf et al.
#
# Submitted via: libkcddb 0.31
#
DISCID=f00da611
DTITLE=Helmut Lotti - Out of Africa
DYEAR=1999
DGENRE=Unknown
TTITLE0=Out Of Africa
TTITLE1=Asimbonanga\\\\
TTITLE2=Malaika
TTITLE3=Circle Of Life
TTITLE4=Qongqothwane\\\\
TTITLE5=The Lion Sleeps Tonight
TTITLE6=Shosholoza
TTITLE7=Umakoti
TTITLE8=Jikela Emaweni Hamba\\\\\nWith Bloemfontein Children Choir\\\\
TTITLE9=Tula Tula
TTITLE10=Sarie Marais
TTITLE11=Kumbaya My Lord
TTITLE12=Pata Pata
TTITLE13=African Sunrise
TTITLE14=Minapendawe
TTITLE15=My Angel
TTITLE16=Nkosi Sikelele Africa\\\\
EXTD=
EXTT0=
EXTT1=
EXTT2=
EXTT3=
EXTT4=
EXTT5=
EXTT6=
EXTT7=
EXTT8=
EXTT9=
EXTT10=
EXTT11=
EXTT12=
EXTT13=
EXTT14=
EXTT15=
EXTT16=
PLAYORDER=
